<svg width="559" height="307" viewBox="0 0 559 307" fill="none" xmlns="http://www.w3.org/2000/svg">
<path d="M85.2732 262.319C72.8601 271.563 69.3421 287.829 69.3421 287.829C69.3421 287.829 85.9497 289.106 98.3628 279.861C110.776 270.617 114.294 254.351 114.294 254.351C114.294 254.351 97.6864 253.074 85.2732 262.319Z" fill="#F1F1F1"/>
<path d="M90.444 266.659C84.4781 280.932 69.5368 288.288 69.5368 288.288C69.5368 288.288 64.268 272.501 70.2339 258.228C76.1997 243.955 91.1411 236.599 91.1411 236.599C91.1411 236.599 96.4099 252.386 90.444 266.659Z" fill="#FFA900"/>
<path d="M447.581 225.397C446.262 216.521 445.913 207.528 446.541 198.577L447.581 183.762C441.854 195.145 443.149 210.127 447.581 225.396V225.397Z" fill="#FFA900"/>
<path d="M452.046 227.875C451.411 222.578 451.243 217.236 451.546 211.911L452.046 203.093C449.291 209.868 449.913 218.786 452.046 227.875Z" fill="#FFA900"/>
<path d="M471.893 238.78V243.737C471.891 244.13 471.733 244.507 471.454 244.786C471.176 245.064 470.798 245.221 470.404 245.223H467.924C467.858 245.223 467.794 245.236 467.733 245.261C467.673 245.286 467.618 245.322 467.572 245.368C467.526 245.414 467.49 245.469 467.465 245.529C467.44 245.589 467.427 245.654 467.427 245.719V286.362C467.425 286.756 467.268 287.133 466.989 287.411C466.711 287.689 466.333 287.847 465.939 287.849H435.676C435.281 287.849 434.903 287.692 434.624 287.413C434.345 287.134 434.188 286.756 434.188 286.362V245.719C434.187 245.588 434.135 245.462 434.042 245.369C433.949 245.276 433.823 245.224 433.692 245.223H430.715C430.32 245.223 429.942 245.066 429.663 244.788C429.384 244.509 429.227 244.131 429.227 243.737V238.78C429.226 238.585 429.265 238.391 429.339 238.211C429.414 238.03 429.524 237.866 429.662 237.728C429.8 237.59 429.964 237.48 430.145 237.406C430.326 237.331 430.519 237.293 430.715 237.293H470.404C470.799 237.294 471.176 237.451 471.455 237.73C471.734 238.009 471.891 238.386 471.893 238.78Z" fill="#F2F2F2"/>
<path d="M467.472 246.264H434.232V247.751H467.472V246.264Z" fill="#E6E6E6"/>
<path d="M467.427 268.144C456.305 272.743 445.061 272.794 433.692 268.144V257.669C444.636 253.996 456.483 253.996 467.427 257.669V268.144Z" fill="#E6E6E6"/>
<path d="M281.114 107.975C305.944 107.975 326.073 87.8658 326.073 63.0594C326.073 38.2529 305.944 18.1434 281.114 18.1434C256.284 18.1434 236.155 38.2529 236.155 63.0594C236.155 87.8658 256.284 107.975 281.114 107.975Z" fill="#FEB8B8"/>
<path d="M323.106 24.3096C316.385 13.4049 305.863 5.36972 293.567 1.75068L288.047 5.7746V0.54966C285.094 0.0981152 282.105 -0.075833 279.12 0.0301036L274.358 4.33459V0.387722C267.308 1.26301 260.515 3.58824 254.409 7.21679C248.303 10.8453 243.016 15.6985 238.88 21.4702C228.539 36.364 226.794 57.0845 236.965 72.0978C239.757 63.5252 243.146 55.4817 245.938 46.91C248.133 47.2088 250.357 47.2196 252.554 46.942L255.951 39.0232L256.9 46.6069C267.429 45.6908 283.046 43.6784 293.028 41.8349L292.057 36.0168L297.864 40.8512C300.922 40.1481 302.738 39.5099 302.588 39.0224C310.012 50.979 319.097 58.6155 326.52 70.5721C329.339 53.7127 332.584 39.6943 323.106 24.3096Z" fill="#2F2E41"/>
<path d="M377.808 178.562C376.262 169.27 374.667 159.8 370.345 151.429C367.504 145.946 362.994 140.721 356.914 139.637C355.717 139.53 354.54 139.258 353.417 138.828C351.636 137.971 327.698 124.319 323.894 121.941C320.627 119.9 315.47 116.12 312.87 116.12C310.254 116.063 300.223 118.395 261.073 115.337C261.073 115.337 250.318 119.573 241.996 124.708C241.869 124.625 201.361 146.357 199.839 146.3C196.957 146.179 194.278 148.022 192.626 150.344C190.974 152.665 190.199 155.539 189.388 158.318C198.236 178.003 206.331 197.713 215.179 217.398C215.594 218.139 215.814 218.973 215.819 219.822C215.641 220.704 215.265 221.533 214.719 222.247C210.379 229.211 210.517 237.969 210.991 246.154C211.466 254.339 212.052 262.984 208.391 270.32C207.395 272.334 206.1 274.178 205.153 276.192C202.935 280.754 202.133 295.343 203.429 300.245L365.741 304.89C362.251 295.306 377.808 178.562 377.808 178.562Z" fill="#FFA900"/>
<path d="M175.358 218.271C175.034 220.611 175.001 222.983 175.261 225.331L177.587 258.709C177.805 261.855 178.02 264.993 178.316 268.131C178.874 274.221 179.708 280.263 180.743 286.295C180.766 287.152 181.129 287.964 181.751 288.554C182.373 289.144 183.204 289.463 184.062 289.441C194.302 291.606 204.882 291.52 215.334 290.93C231.282 290.041 272.083 288.358 274.576 285.123C277.068 281.888 275.616 276.655 272.365 274.039C269.115 271.423 215.272 265.046 215.272 265.046C215.798 260.881 217.385 256.958 218.891 253.004C221.595 245.99 224.121 238.745 224.169 231.232C224.218 223.718 221.384 215.818 215.224 211.514C210.156 207.98 203.631 207.325 197.455 207.47C192.962 207.599 185.199 206.524 181.095 208.279C177.847 209.708 175.964 215.094 175.358 218.271Z" fill="#FBBEBE"/>
<path d="M188.92 158.917C188.131 159.742 187.52 160.719 187.123 161.789C180.579 176.522 176.714 192.302 175.709 208.389C175.726 209.173 175.545 209.95 175.183 210.645C174.825 211.108 174.427 211.539 173.993 211.931C173.614 212.379 173.328 212.898 173.15 213.456C172.972 214.015 172.906 214.603 172.956 215.188C173.005 215.772 173.17 216.341 173.439 216.861C173.709 217.382 174.078 217.845 174.527 218.223C174.601 218.285 174.676 218.344 174.754 218.401C176.089 215.89 179.287 215.069 182.129 214.851C195.737 213.776 209.029 220.1 222.678 219.623C221.715 216.299 220.33 213.105 219.544 209.741C216.071 194.803 224.734 178.539 219.423 164.151C218.362 161.272 216.59 158.441 213.797 157.179C212.641 156.713 211.43 156.393 210.195 156.227C206.746 155.604 199.881 152.943 196.546 154.011C195.315 154.408 194.83 155.564 193.81 156.262C192.26 157.251 190.204 157.615 188.92 158.917Z" fill="#FFA900"/>
<path d="M377.905 208.279C373.801 206.524 366.038 207.599 361.545 207.47C355.369 207.325 348.844 207.98 343.776 211.514C337.616 215.818 334.782 223.718 334.831 231.232C334.879 238.745 337.405 245.99 340.109 253.004C341.615 256.958 343.202 260.881 343.728 265.046C343.728 265.046 289.885 271.423 286.635 274.039C283.384 276.655 281.932 281.888 284.424 285.123C286.917 288.358 364.698 291.606 374.938 289.441C375.796 289.463 376.627 289.144 377.249 288.554C377.871 287.964 378.234 287.152 378.257 286.295C379.292 280.263 380.126 274.221 380.684 268.131C380.98 264.993 381.195 261.855 381.413 258.709L383.739 225.331C383.999 222.983 383.966 220.611 383.642 218.271C383.036 215.094 381.153 209.708 377.905 208.279Z" fill="#FBBEBE"/>
<path d="M365.19 156.262C364.17 155.564 363.685 154.408 362.454 154.011C359.119 152.943 352.254 155.604 348.805 156.227C347.57 156.393 346.359 156.713 345.203 157.179C342.41 158.441 340.638 161.272 339.577 164.151C334.266 178.539 342.929 194.803 339.456 209.741C338.67 213.105 337.285 216.299 336.322 219.623C349.971 220.1 363.263 213.776 376.871 214.851C379.713 215.069 382.911 215.89 384.246 218.401C384.324 218.344 384.399 218.285 384.473 218.223C384.922 217.845 385.291 217.382 385.561 216.861C385.831 216.341 385.995 215.772 386.044 215.188C386.094 214.603 386.028 214.015 385.85 213.456C385.672 212.898 385.386 212.379 385.007 211.931C384.573 211.539 384.175 211.108 383.817 210.645C383.455 209.95 383.274 209.173 383.291 208.389C382.286 192.302 378.421 176.522 371.877 161.789C371.48 160.719 370.869 159.742 370.08 158.917C368.796 157.615 366.74 157.251 365.19 156.262Z" fill="#FFA900"/>
<path d="M267.799 291.035C274.501 291.035 279.933 285.608 279.933 278.913C279.933 272.217 274.501 266.79 267.799 266.79C261.097 266.79 255.665 272.217 255.665 278.913C255.665 285.608 261.097 291.035 267.799 291.035Z" fill="#FBBEBE"/>
<path d="M294.668 291.035C301.37 291.035 306.802 285.608 306.802 278.913C306.802 272.217 301.37 266.79 294.668 266.79C287.966 266.79 282.534 272.217 282.534 278.913C282.534 285.608 287.966 291.035 294.668 291.035Z" fill="#FBBEBE"/>
<path d="M369.571 306.23H202.862C200.916 306.228 199.05 305.454 197.674 304.079C196.297 302.704 195.523 300.84 195.521 298.896V197.855C195.523 195.91 196.297 194.046 197.674 192.671C199.05 191.296 200.916 190.523 202.862 190.521H369.571C371.517 190.523 373.383 191.296 374.759 192.671C376.136 194.046 376.91 195.91 376.912 197.855V298.896C376.91 300.84 376.136 302.704 374.759 304.079C373.383 305.454 371.517 306.228 369.571 306.23Z" fill="#10002B"/>
<path d="M285.812 253.228C288.495 253.228 290.669 251.055 290.669 248.375C290.669 245.695 288.495 243.523 285.812 243.523C283.13 243.523 280.955 245.695 280.955 248.375C280.955 251.055 283.13 253.228 285.812 253.228Z" fill="white"/>
<path d="M559 285.849H0V303.011H33.0642V307H525.948V303.011H559V285.849Z" fill="#F1F1F1"/>
<path d="M239.772 79.8004C232.548 79.8004 226.692 73.4746 226.692 65.6712V58.6065C226.692 50.8031 232.548 44.4772 239.772 44.4772V79.8004H239.772Z" fill="#FFA900"/>
<path d="M323.259 44.4772C330.483 44.4772 336.339 50.8031 336.339 58.6065V65.6712C336.339 73.4746 330.483 79.8004 323.259 79.8004V44.4772Z" fill="#FFA900"/>
<path d="M330.113 59.7167H328.037C328.037 31.2858 306.625 8.15549 280.305 8.15549C253.985 8.15549 232.572 31.2858 232.572 59.7167H230.496C230.496 30.0496 252.84 5.91371 280.305 5.91371C307.769 5.91372 330.113 30.0496 330.113 59.7167Z" fill="#FFA900"/>
</svg>
